<svg width="514" height="506" viewBox="0 0 514 506" xmlns="http://www.w3.org/2000/svg">
    <g transform="rotate(-13 436.868 46.185)" fill="none" fill-rule="evenodd">
        <g stroke-width="3">
            <path d="m158.264 11.495-38.942 67.45c-3.665 6.348-1.49 14.467 4.858 18.132l100.337 57.93c6.349 3.665 14.467 1.49 18.132-4.86l38.942-67.449c3.666-6.348 1.49-14.466-4.858-18.132L176.396 6.636c-6.349-3.665-14.467-1.49-18.132 4.86z" stroke="#269DA3"/>
            <path d="m198.35 264.85-38.942 67.451c-3.665 6.349-1.49 14.467 4.859 18.132l100.336 57.93c6.35 3.665 14.467 1.49 18.133-4.859l38.942-67.45c3.665-6.349 1.49-14.467-4.858-18.132l-100.337-57.93c-6.349-3.665-14.467-1.49-18.132 4.859z" stroke="#F6D055"/>
            <path d="M96.555 118.38 19.638 251.602c-3.666 6.349-1.49 14.467 4.858 18.132l100.337 57.93c6.349 3.665 14.467 1.49 18.132-4.859l76.917-133.224c3.665-6.348 1.49-14.467-4.859-18.132l-100.336-57.93c-6.349-3.665-14.467-1.49-18.132 4.86z" stroke="#EB6F57"/>
            <path d="m298.035 92.192-76.917 133.224c-3.665 6.349-1.49 14.467 4.859 18.132l100.336 57.93c6.349 3.665 14.467 1.49 18.132-4.859l76.917-133.224c3.666-6.348 1.49-14.466-4.858-18.132l-100.337-57.93c-6.349-3.665-14.467-1.49-18.132 4.86z" stroke="#13444B"/>
        </g>
        <circle fill="#EB6F57" cx="9.1" cy="208.9" r="9.1"/>
        <circle fill="#EB6F57" cx="16.8" cy="205.4" r="7"/>
        <circle fill="#269DA3" cx="71.4" cy="12.199" r="5.6"/>
        <circle fill="#269DA3" cx="51.8" cy="17.799" r="4.2"/>
        <circle fill="#269DA3" cx="113.4" cy="30.399" r="4.2"/>
        <circle fill="#13444B" cx="273" cy="180.2" r="11.2"/>
        <circle fill="#13444B" cx="276.5" cy="168.3" r="7.7"/>
        <circle fill="#F6D055" cx="144.9" cy="354.501" r="7.7"/>
        <circle fill="#F6D055" cx="117.6" cy="356.601" r="2.8"/>
        <circle fill="#EB6F57" cx="27.487" cy="177.757" r="2.8"/>
        <circle fill="#13444B" cx="296.801" cy="215.2" r="2.8"/>
        <circle fill="#13444B" cx="317.801" cy="117.2" r="2.8"/>
        <circle fill="#13444B" cx="310.801" cy="164.8" r="4.2"/>
    </g>
</svg>
