<svg height="506" viewBox="0 0 514 506" width="514" xmlns="http://www.w3.org/2000/svg"><g fill="none" fill-rule="evenodd" transform="matrix(.97437006 -.22495105 .22495105 .97437006 .807534 99.457636)"><g stroke-width="3"><path d="m158.264 11.495-38.942 67.45c-3.665 6.348-1.49 14.467 4.858 18.132l100.337 57.93c6.349 3.665 14.467 1.49 18.132-4.86l38.942-67.449c3.666-6.348 1.49-14.466-4.858-18.132l-100.337-57.93c-6.349-3.665-14.467-1.49-18.132 4.86z" stroke="#269da3"/><path d="m198.35 264.85-38.942 67.451c-3.665 6.349-1.49 14.467 4.859 18.132l100.336 57.93c6.35 3.665 14.467 1.49 18.133-4.859l38.942-67.45c3.665-6.349 1.49-14.467-4.858-18.132l-100.337-57.93c-6.349-3.665-14.467-1.49-18.132 4.859z" stroke="#f6d055"/><path d="m96.555 118.38-76.917 133.222c-3.666 6.349-1.49 14.467 4.858 18.132l100.337 57.93c6.349 3.665 14.467 1.49 18.132-4.859l76.917-133.224c3.665-6.348 1.49-14.467-4.859-18.132l-100.336-57.93c-6.349-3.665-14.467-1.49-18.132 4.86z" stroke="#eb6f57"/><path d="m298.035 92.192-76.917 133.224c-3.665 6.349-1.49 14.467 4.859 18.132l100.336 57.93c6.349 3.665 14.467 1.49 18.132-4.859l76.917-133.224c3.666-6.348 1.49-14.466-4.858-18.132l-100.337-57.93c-6.349-3.665-14.467-1.49-18.132 4.86z" stroke="#13444b"/></g><circle cx="9.1" cy="208.9" fill="#eb6f57" r="9.1"/><circle cx="16.8" cy="205.4" fill="#eb6f57" r="7"/><g fill="#269da3"><circle cx="71.4" cy="12.199" r="5.6"/><circle cx="51.8" cy="17.799" r="4.2"/><circle cx="113.4" cy="30.399" r="4.2"/></g><circle cx="273" cy="180.2" fill="#13444b" r="11.2"/><circle cx="276.5" cy="168.3" fill="#13444b" r="7.7"/><circle cx="144.9" cy="354.501" fill="#f6d055" r="7.7"/><circle cx="117.6" cy="356.601" fill="#f6d055" r="2.8"/><circle cx="27.487" cy="177.757" fill="#eb6f57" r="2.8"/><circle cx="296.801" cy="215.2" fill="#13444b" r="2.8"/><circle cx="317.801" cy="117.2" fill="#13444b" r="2.8"/><circle cx="310.801" cy="164.8" fill="#13444b" r="4.2"/></g></svg>