<svg width="989" height="988" xmlns="http://www.w3.org/2000/svg">
    <g transform="matrix(-.86603 .5 .5 .86603 626.786 .15)" fill="none" fill-rule="evenodd">
        <path d="M0 31.604v185.323c0 17.455 14.15 31.604 31.604 31.604h275.698c17.455 0 31.604-14.15 31.604-31.604V31.604C338.906 14.15 324.756 0 307.302 0H31.604C14.15 0 0 14.15 0 31.604z" fill="#269DA3"/>
        <rect fill="#F6D055" transform="matrix(0 1 1 0 -45.188 45.188)" x="429.281" y="429.281" width="248.531" height="338.906" rx="31.604"/>
        <path d="M0 325.323v366.073C0 708.85 14.15 723 31.604 723h275.698c17.455 0 31.604-14.15 31.604-31.604V325.323c0-17.455-14.15-31.604-31.604-31.604H31.604C14.15 293.719 0 307.869 0 325.323z" fill="#EB6F57"/>
        <path d="M384.094 31.604v366.073c0 17.455 14.15 31.604 31.604 31.604h275.698c17.454 0 31.604-14.15 31.604-31.604V31.604C723 14.15 708.85 0 691.396 0H415.698c-17.455 0-31.604 14.15-31.604 31.604z" fill="#13444B"/>
    </g>
</svg>
