<svg viewBox="0 0 64 64" xmlns="http://www.w3.org/2000/svg"><path d="m2.133 13.867h59.733c1.178 0 2.133.955 2.133 2.133v2.133c0 1.178-.955 2.133-2.133 2.133h-59.733c-1.178 0-2.133-.955-2.133-2.133v-2.133c0-1.178.955-2.133 2.133-2.133z"/><path d="m2.133 28.8h59.733c1.178 0 2.133.955 2.133 2.133v2.133c0 1.178-.955 2.133-2.133 2.133h-59.733c-1.178 0-2.133-.955-2.133-2.133v-2.133c0-1.178.955-2.133 2.133-2.133z"/><path d="m2.133 43.733h59.733c1.178 0 2.133.955 2.133 2.133v2.133c0 1.178-.955 2.133-2.133 2.133h-59.733c-1.178 0-2.133-.955-2.133-2.133v-2.133c0-1.178.955-2.133 2.133-2.133z"/></svg>