<svg preserveAspectRatio="none" xmlns="http://www.w3.org/2000/svg">
    <g fill="none" fill-rule="evenodd">
        <path d="M335 259.042V5.268A4.958 4.958 0 0 0 330.042.31H5.268A4.958 4.958 0 0 0 .31 5.268v253.774A4.958 4.958 0 0 0 5.268 264h324.774a4.958 4.958 0 0 0 4.958-4.958z"/>
        <g transform="translate(75.615 142.368)">
            <rect fill="#F6D055" transform="matrix(1 0 0 -1 0 121.322)" width="87.391" height="121.322" rx="9.917"/>
            <path d="M58.523 51.973c1.445.003 1.516.039 1.923.469.2.178.354.401.443.67.111.334.976 4.107 3.305 14.777l.2.893 1.353-7.545c.754-4.13 1.398-7.68 1.442-7.835.2-.67.599-1.161 1.065-1.318.174-.078.332-.087 1.082-.089h1.58l.244.134c.133.067.266.179.354.268.311.38.444 1.228.355 1.987-.033.19-1.209 6.35-2.417 12.66l-.162.842c-1.156 6.03-2.297 11.959-2.456 12.705-.82 3.996-1.863 5.916-3.638 6.81a4.154 4.154 0 0 1-1.553.446c-.465.067-.687.067-1.353 0-1.131-.09-1.93-.402-2.462-.96-.555-.558-.665-.916-.665-1.987 0-1.094.177-1.741.554-2.143.422-.424.799-.447 1.908-.112.355.112.732.223.865.223.177.023.2.023.333-.133.665-.76 1.064-2.5.865-3.75-.133-.983-.51-2.479-3.261-13.306-2.578-10.099-2.823-11.095-2.858-11.593l-.003-.04v-.02c-.067-.848.088-1.406.443-1.74.304-.286.367-.31 1.676-.313zm-11.548-11.12c1.07.023 1.162.023 1.395.111.418.2.743.576.86 1.02.058.184.083.618.09 3.406l.001.487v.26l.001 1.162.024 5.072h1.72c1.672.022 1.695.022 1.951.133.488.2.813.664.93 1.329.046.73.046 1.462 0 2.215-.047.354-.21.73-.442.996-.418.421-.65.466-2.626.466h-1.533v7.331c-.024 2.702 0 5.36.046 8.062.07 1.152.21 1.75.488 2.503.302.709.372.753 1.952.753h.346c.569.001 1.075.008 1.21.044.628.09 1.046.4 1.21.909.069.243.092.42.092 1.484v.519c-.003.627-.017.767-.093.965a1.267 1.267 0 0 1-.697.797l-.023.022-.302.155h-4.369c-1.929-.2-3.462-1.174-4.299-2.768-.511-.909-.883-2.304-1.069-3.854l-.018-.178-.012-.123c-.088-.972-.127-2.52-.132-8.01v-8.545l-.744-.044c-.906-.022-1.162-.111-1.487-.443-.418-.421-.558-1.063-.511-2.459.023-1.085.162-1.484.557-1.882.28-.266.535-.31 1.441-.355a9.12 9.12 0 0 1 .75-.044h.04l.256-4.94c.186-3.809.279-5.027.348-5.249.14-.598.419-.996.79-1.151.262-.135.594-.153 1.434-.155zm-25.65.026c.736-.134 1.247.266 1.452 1.088.004.015.008.031.011.051l.005.026c.036.24.052.962.06 4.24v.397l.001.642.001.7v.245l.001.78v.274l.001 1.167v.31l.001 3.935v16.732l-.002 1.368v1.423l-.001.425v.203l-.001.39v.186l-.002.355v.494l-.002.303c-.007 2.391-.023 2.8-.053 2.963-.163.733-.388 1.156-.756 1.378-.133.072-.197.097-.679.1h-.216c-.24-.001-.558-.006-.985-.011-1.37.022-1.737 0-1.88-.067-.47-.178-.715-.578-.9-1.422a.562.562 0 0 1-.003-.02l-.004-.024c-.038-.267-.058-1.23-.068-6.216v-.504l-.002-.806V71.116l-.001-.614v-.319l-.002-1.348v-3.078l-.002-2.658c-.02-12.016-.04-15.2-.08-15.2-.021 0-.368.11-.757.2-1.021.288-1.41.288-1.757-.112-.388-.422-.45-.777-.45-2.51v-.23c.007-1.557.08-1.898.47-2.28.266-.267.43-.333 1.083-.511.286-.089 1.574-.467 2.902-.844 1.308-.378 2.473-.689 2.616-.733zm14.022-.026c.68 0 1.112.445 1.235 1.268.02.11.031 1.484.036 4.493l.001.476v.248l.001.515v.268l.001.843v.294l.001 1.576v.337l.001 3.756v6.001l-.02 18.474-.082.356c-.165.623-.391 1-.762 1.2-.113.07-.213.085-1.02.089h-.853c-1.873.023-1.893 0-2.202-.244a2.024 2.024 0 0 1-.515-.956l-.082-.356-.02-15.806c-.021-10.76-.021-15.784-.062-15.784-.268.066-.535.133-.803.222-1.111.29-1.379.267-1.77-.156a2.053 2.053 0 0 1-.309-.51c-.081-.212-.098-.256-.102-1.126v-1.627c.002-.879.014-1.024.078-1.189l.024-.06c.103-.334.33-.6.638-.756.206-.112 1.112-.4 3.273-1 2.531-.734 3.046-.846 3.313-.846z" fill="#FFF"/>
        </g>
        <g transform="translate(184.7 74.279)">
            <rect fill="#08777C" transform="matrix(1 0 0 -1 0 121.322)" width="149.991" height="121.322" rx="9.917"/>
            <path d="m28.916 45.706 31.222 47.762-12.902-17.594-18.691-27.887-.082 27.887H26.65V45.706h2.265zm42.186 0v1.602H53.77V59.37h16.299v1.603h-16.3v13.242h17.532v1.603H52.02V45.706h19.081zm35.716-16.613L85.62 60.408l10.924 15.409h-2.177L84.43 61.793 74.45 75.817h-2.135l11.005-15.41L73.055 45.84h2.094l9.28 13.183 9.486-13.183 12.903-16.746zm13.192 16.613v1.602h-10.285v28.509h-1.796V47.308H97.685v-1.602h22.325zm-.508 26.996c.294 0 .508.226.508.519 0 .292-.214.519-.508.519a.504.504 0 0 1-.507-.52c0-.292.217-.518.507-.518zm5.581-5.192v4.304c0 1.222-.77 1.926-2.043 1.926-1.196 0-2.016-.683-2.016-1.728h1.008c.014.501.413.839.999.839.655 0 1.026-.363 1.026-1.042V67.51h1.026zm3.083 0c1.075 0 1.86.704 1.907 1.705h-.8c-.076-.548-.502-.89-1.118-.89-.649 0-1.081.35-1.081.886 0 .424.278.667.968.848l.583.16c1.085.284 1.532.779 1.532 1.672 0 1.137-.784 1.849-2.038 1.849-1.174 0-1.962-.68-2.02-1.742h.813c.07.564.561.923 1.269.923.66 0 1.144-.383 1.144-.91 0-.453-.308-.725-1.008-.91l-.682-.186c-.957-.25-1.394-.77-1.394-1.643 0-1.058.77-1.762 1.925-1.762z" fill="#FFF"/>
        </g>
        <g>
            <rect fill="#EB6F57" transform="matrix(1 0 0 -1 0 120.084)" width="148.751" height="120.084" rx="9.917"/>
            <path d="M76.854 18.57c22.554 0 40.907 18.326 40.907 40.852 0 22.53-18.353 40.855-40.907 40.855-22.555 0-40.906-18.326-40.906-40.855 0-22.526 18.351-40.852 40.906-40.852zm0 1.873c-21.521 0-39.03 17.486-39.03 38.98 0 21.494 17.51 38.981 39.03 38.981s39.028-17.487 39.028-38.982c0-21.493-17.508-38.979-39.028-38.979zm.592 40.682 11.083 29.846c.072.175.16.336.257.488a36.579 36.579 0 0 1-11.973 2.009c-3.54 0-6.955-.51-10.185-1.444l10.818-30.899zm-31.8-17.022 15.869 45.96c-11.097-5.7-18.749-17.73-18.749-31.648 0-5.099 1.034-9.938 2.88-14.312zm61.099-1.702a33.941 33.941 0 0 1 4.199 16.405c0 12.614-6.855 23.627-17.045 29.555l10.47-30.197c1.957-4.877 2.606-8.777 2.606-12.247 0-1.258-.083-2.427-.23-3.516zM76.719 23.676c9.252 0 17.675 3.463 23.998 9.135-.154-.009-.303-.028-.46-.028-3.49 0-5.968 2.978-5.968 6.176 0 2.867 1.688 5.294 3.49 8.16 1.353 2.318 2.93 5.297 2.93 9.597 0 2.979-1.169 6.436-2.705 11.249l-3.545 11.598-12.842-37.406c2.138-.11 4.067-.331 4.067-.331 1.915-.222 1.69-2.977-.228-2.867l-.068.006-.118.008c-.676.05-3.101.224-5.627.334l-.813.033-.54.019a72.39 72.39 0 0 1-2.305.042c-1.114 0-2.47-.045-3.801-.106l-.53-.025c-2.638-.13-5.03-.31-5.03-.31-1.914-.111-2.139 2.756-.224 2.866 0 0 1.813.222 3.727.331l5.537 14.854-7.777 22.839-12.942-37.691a72.621 72.621 0 0 0 4.068-.332c1.913-.222 1.688-2.977-.228-2.866 0 0-3.19.245-6.355.37l-.542.02c-.9.031-1.783.051-2.574.051-.667 0-1.453-.017-2.287-.041 6.354-9.447 17.277-15.685 29.692-15.685z" fill="#FFF"/>
        </g>
    </g>
</svg>
