<svg preserveAspectRatio="none" xmlns="http://www.w3.org/2000/svg">
    <g fill="none" fill-rule="evenodd">
        <text font-family="Inter-Regular_Bold, Inter" font-size="17.367" font-weight="bold" letter-spacing=".322" fill="#FFF" transform="translate(8 6)">
                        <tspan x="136.516" y="234.628">Largest Contentful </tspan>
                        <tspan x="136.516" y="255.628">Paint</tspan>
                    </text>
        <text font-family="Inter-Regular_Bold, Inter" font-size="17.367" font-weight="bold" letter-spacing=".322" fill="#FFF" transform="translate(8 6)">
                        <tspan x="199.032" y="140.996">First Input </tspan>
                        <tspan x="199.032" y="161.996">Delay</tspan>
                    </text>
        <text font-family="Inter-Regular_Bold, Inter" font-size="17.367" font-weight="bold" letter-spacing=".322" fill="#FFF" transform="translate(8 6)">
                        <tspan x="165.668" y="38.073">Cumulative Layout </tspan>
                        <tspan x="165.668" y="59.073">Shift</tspan>
                    </text>
        <g stroke-linecap="round" stroke-linejoin="round">
            <path d="M175.416 115.296a36.76 36.76 0 0 0-4.453-2.185 36.312 36.312 0 0 0-3.866-1.335 36.414 36.414 0 0 0-18.092-.437c-9.52 2.191-18.14 8.177-23.41 17.301-10.071 17.438-4.094 39.734 13.35 49.802 17.444 10.067 39.75 4.093 49.82-13.344 7.432-12.866 6.126-28.378-2.076-39.67" stroke="#08777C" stroke-width="7.443"/>
            <path d="M98.55 33.358a31.91 31.91 0 0 0-1.894 3.857 31.436 31.436 0 0 0-1.157 3.35 31.517 31.517 0 0 0-.379 15.67c1.9 8.246 7.088 15.712 14.998 20.277 15.115 8.723 34.443 3.546 43.17-11.563 8.727-15.11 3.548-34.43-11.567-43.154-11.153-6.436-24.6-5.305-34.388 1.8" stroke="#F6D055" stroke-width="7.443"/>
            <path d="M34.094 213.53a48.785 48.785 0 0 0-2.501 4.897 48.907 48.907 0 0 0-3.967 23.998c1.137 13.08 7.497 25.674 18.664 34.395 21.342 16.668 52.16 12.886 68.835-8.448 16.674-21.334 12.89-52.14-8.452-68.808-15.747-12.298-36.653-13.463-53.23-4.659" stroke="#13444b" stroke-width="10.42"/>
        </g>
        <text font-family="Inter-Regular_Bold, Inter" font-size="29.773" font-weight="bold" letter-spacing=".551" fill="#FFF" transform="translate(8 6)">
                        <tspan x="130.566" y="151.5">97</tspan>
                    </text>
        <text font-family="Inter-Regular_Bold, Inter" font-size="23.818" font-weight="bold" letter-spacing=".441" fill="#FFF" transform="translate(8 6)">
                        <tspan x="104.097" y="51.468">95</tspan>
                    </text>
        <text font-family="Inter-Regular_Bold, Inter" font-size="35.727" font-weight="bold" letter-spacing=".662" fill="#FFF" transform="translate(8 6)">
                        <tspan x="44.199" y="245.614">95</tspan>
                    </text>
    </g>
</svg>
